<?xml version="1.0" standalone="no"?>
<!DOCTYPE svg PUBLIC "-//W3C//DTD SVG 1.1//EN" "http://www.w3.org/Graphics/SVG/1.1/DTD/svg11.dtd" >
<!--
2013-9-30: Created.
-->
<svg>
<metadata>
Created by iconfont
</metadata>
<defs>

<font id="iconfont" horiz-adv-x="1024" >
  <font-face
    font-family="iconfont"
    font-weight="500"
    font-stretch="normal"
    units-per-em="1024"
    ascent="896"
    descent="-128"
  />
    <missing-glyph />
    
    <glyph glyph-name="wendangdocument79" unicode="&#59172;" d="M677.04832 759.01952 276.34688 759.01952c-26.90048 0-48.81408-21.92384-48.81408-48.82432l0-698.50112c0-26.9312 21.9136-48.82432 48.81408-48.82432l490.82368 0c26.9312 0 48.82432 21.89312 48.82432 48.82432L815.99488 608.0512 677.04832 759.01952zM688.56832 685.95712l60.90752-66.18112-60.90752 0L688.56832 685.95712zM775.00416 11.70432c0-4.31104-3.52256-7.8336-7.8336-7.8336L276.34688 3.87072c-4.31104 0-7.81312 3.52256-7.81312 7.8336L268.53376 710.1952c0 4.31104 3.50208 7.80288 7.81312 7.80288l371.21024 0 0-118.7328c0-11.30496 9.20576-20.46976 20.51072-20.46976l106.92608 0L774.99392 11.70432z"  horiz-adv-x="1024" />

    
    <glyph glyph-name="sousu" unicode="&#58919;" d="M511.609097-65.619254M589.980026 741.356944c-119.990838 119.990838-314.535673 119.990838-434.526511 0s-119.990838-314.535673 0-434.526511c109.048625-109.048625 279.666514-118.980835 399.945925-29.822213L894.373711-61.967074l64.403822 64.403822L619.802238 341.412043C708.961884 461.691453 699.028651 632.308319 589.980026 741.356944zM547.528168 349.282291c-96.54587-96.54587-253.077949-96.54587-349.623819 0s-96.54587 253.077949 0 349.623819 253.077949 96.54587 349.623819 0S644.074038 445.828161 547.528168 349.282291z"  horiz-adv-x="1024" />

    
    <glyph glyph-name="leimupinleifenleileibie" unicode="&#59385;" d="M320 384 192 384c-70.4 0-128-57.6-128-128l0-128c0-70.4 57.6-128 128-128l128 0c70.4 0 128 57.6 128 128l0 128C448 326.4 390.4 384 320 384zM384 128c0-35.2-28.8-64-64-64L192 64c-35.2 0-64 28.8-64 64l0 128c0 35.2 28.8 64 64 64l128 0c35.2 0 64-28.8 64-64L384 128zM768 832l-128 0C569.6 832 512 774.4 512 704l0-128c0-70.4 57.6-128 128-128l128 0c70.4 0 128 57.6 128 128L896 704C896 774.4 838.4 832 768 832zM832 576c0-35.2-28.8-64-64-64l-128 0C604.8 512 576 540.8 576 576L576 704c0 35.2 28.8 64 64 64l128 0c35.2 0 64-28.8 64-64L832 576zM768 384l-128 0c-70.4 0-128-57.6-128-128l0-128c0-70.4 57.6-128 128-128l128 0c70.4 0 128 57.6 128 128l0 128C896 326.4 838.4 384 768 384zM832 128c0-35.2-28.8-64-64-64l-128 0c-35.2 0-64 28.8-64 64l0 128c0 35.2 28.8 64 64 64l128 0c35.2 0 64-28.8 64-64L832 128zM320 832 192 832C121.6 832 64 774.4 64 704l0-128c0-70.4 57.6-128 128-128l128 0c70.4 0 128 57.6 128 128L448 704C448 774.4 390.4 832 320 832zM384 576c0-35.2-28.8-64-64-64L192 512C156.8 512 128 540.8 128 576L128 704c0 35.2 28.8 64 64 64l128 0c35.2 0 64-28.8 64-64L384 576z"  horiz-adv-x="1024" />

    
    <glyph glyph-name="lie" unicode="&#58903;" d="M989.903-62.009h-700.944c-17.622 0-31.894 14.272-31.894 31.894v63.715c0 17.622 14.272 31.894 31.894 31.894h700.871c17.622 0 31.822-14.272 31.822-31.894v-63.715c0.073-17.622-14.199-31.894-31.748-31.894zM989.903 320.285h-700.944c-17.549 0-31.822 14.272-31.822 31.822v63.789c0 17.622 14.272 31.894 31.894 31.894h700.871c17.549-0.073 31.822-14.346 31.822-31.894v-63.715c0-17.622-14.272-31.894-31.822-31.894zM989.903 702.578h-700.944c-17.549 0-31.822 14.272-31.822 31.894v63.643c0 17.622 14.272 31.894 31.894 31.894h700.871c17.549 0 31.822-14.272 31.822-31.894v-63.715c0-17.549-14.272-31.822-31.822-31.822zM65.991-62.009c-35.171 0-63.715 28.545-63.715 63.715s28.545 63.715 63.715 63.715c35.171 0 63.715-28.545 63.715-63.715s-28.545-63.715-63.715-63.715zM65.991 320.285c-35.171 0-63.715 28.545-63.715 63.715s28.545 63.715 63.715 63.715c35.171 0 63.715-28.545 63.715-63.715 0-35.171-28.545-63.715-63.715-63.715zM65.991 702.578c-35.171 0-63.715 28.545-63.715 63.715s28.545 63.715 63.715 63.715c35.171 0 63.715-28.545 63.715-63.715 0-35.171-28.545-63.715-63.715-63.715z"  horiz-adv-x="1024" />

    
    <glyph glyph-name="guidang" unicode="&#58905;" d="M980.48 94.72c0-46.08-35.84-81.92-81.92-81.92H128c-46.08 0-81.92 35.84-81.92 81.92V389.12c-2.56 5.12 0 12.8 5.12 20.48L250.88 747.52c12.8 17.92 40.96 33.28 61.44 33.28h417.28c23.04 0 48.64-15.36 61.44-35.84L975.36 409.6c2.56-5.12 5.12-10.24 5.12-15.36v-299.52zM87.04 414.72v-20.48 20.48z m0-320c0-23.04 17.92-40.96 40.96-40.96h770.56c23.04 0 40.96 17.92 40.96 40.96v281.6h-243.2v-81.92c0-23.04-17.92-40.96-40.96-40.96H371.2c-23.04 0-40.96 17.92-40.96 40.96v81.92H87.04v-281.6z m568.32 220.16v102.4H371.2v-102.4c0-10.24 10.24-20.48 20.48-20.48h243.2c10.24 0 20.48 7.68 20.48 20.48zM768 706.56c-10.24 20.48-38.4 35.84-61.44 35.84H335.36c-23.04 0-51.2-15.36-61.44-33.28L107.52 417.28H921.6L768 706.56zM248.32 496.64c0 10.24 10.24 20.48 20.48 20.48h486.4c10.24 0 20.48-10.24 20.48-20.48s-10.24-20.48-20.48-20.48h-486.4c-10.24 0-20.48 10.24-20.48 20.48zM716.8 558.08H309.76c-10.24 0-20.48 10.24-20.48 20.48s10.24 20.48 20.48 20.48H716.8c10.24 0 20.48-10.24 20.48-20.48-2.56-10.24-10.24-20.48-20.48-20.48zM675.84 640H350.72c-10.24 0-20.48 10.24-20.48 20.48s10.24 20.48 20.48 20.48h325.12c10.24 0 20.48-10.24 20.48-20.48 0-12.8-10.24-20.48-20.48-20.48z"  horiz-adv-x="1024" />

    
    <glyph glyph-name="shouye" unicode="&#58941;" d="M1007.072 353.52L512.016 816.848 16.96 354.88c-9.68-9.04-10.224-24.24-1.168-33.92 9.04-9.68 24.24-10.224 33.92-1.168l462.272 431.36L974.272 318.48a23.942 23.942 0 0 1 16.4-6.48c6.4 0 12.8 2.544 17.52 7.6 9.056 9.68 8.56 24.864-1.12 33.92zM856 344c-13.248 0-24-10.752-24-24v-368H640V208H384v-256H192V320c0 13.248-10.736 24-24 24s-24-10.752-24-24v-416h288V160h160v-256h288V320c0 13.248-10.752 24-24 24zM688 688h144v-128c0-13.264 10.752-24 24-24s24 10.736 24 24V736H688c-13.248 0-24-10.736-24-24s10.752-24 24-24z"  horiz-adv-x="1024" />

    
    <glyph glyph-name="ding" unicode="&#59431;" d="M955.733333 896h-819.2c-75.093333 0-136.533333-61.44-136.533333-136.533333v-744.106667c0-75.093333 61.44-136.533333 136.533333-136.533333h819.2c75.093333 0 136.533333 61.44 136.533334 136.533333V759.466667c0 75.093333-61.44 136.533333-136.533334 136.533333z m-484.693333-204.8h423.253333v-54.613333h-204.8l-20.48-95.573334h197.973334v-341.333333h-54.613334V486.4h-273.066666v-293.546667h-54.613334v341.333334h129.706667l20.48 95.573333h-163.84v61.44z m-109.226667-546.133333c0-54.613333-27.306667-81.92-88.746666-81.92h-61.44c0 20.48-6.826667 40.96-13.653334 61.44 20.48-6.826667 40.96-6.826667 68.266667-6.826667 20.48 0 34.133333 13.653333 34.133333 34.133333V622.933333h-116.053333v54.613334h266.24v-54.613334h-95.573333v-477.866666z m498.346667-116.053334c-61.44 54.613333-129.706667 102.4-197.973333 150.186667-6.826667-6.826667-6.826667-20.48-13.653334-27.306667-40.96-54.613333-109.226667-95.573333-204.8-129.706666-6.826667 13.653333-20.48 34.133333-34.133333 54.613333 88.746667 27.306667 150.186667 61.44 191.146667 109.226667 34.133333 40.96 47.786667 109.226667 47.786666 191.146666v81.92h54.613334v-75.093333c0-61.44-6.826667-109.226667-20.48-150.186667 81.92-54.613333 150.186667-102.4 218.453333-150.186666l-40.96-54.613334z"  horiz-adv-x="1092" />

    
    <glyph glyph-name="wenzhang" unicode="&#58915;" d="M353.927333 340.824665c-0.544399-0.724501-1.086751-1.471514-1.335415-2.378164L310.406121 178.567187c-2.446725-9.312086 0.068562-19.34765 6.729262-26.41665 4.984524-5.02955 11.553127-7.7935 18.554588-7.7935 2.310625 0 4.620227 0.272199 6.886851 0.906649l153.535839 43.295062c0.249687 0 0.36225-0.226151 0.543376-0.226151 1.768273 0 3.51301 0.656963 4.803399 2.060939l410.565796 424.407036c12.187577 12.618389 18.87079 29.814026 18.87079 48.52825 0 21.205974-8.700149 42.388413-23.923876 58.111512l-38.763862 40.145325c-15.223726 15.744589-35.750225 24.761963-56.231699 24.761963-18.101263 0-34.729989-6.910387-46.964638-19.506263L354.53927 342.299249C354.108458 341.89095 354.223069 341.300502 353.927333 340.824665L353.927333 340.824665M871.833857 656.372388l-40.780799-42.138726-66.085114 69.438489 40.188304 41.550325c6.343475 6.615675 18.669198 5.641487 25.964348-1.925862l38.809911-40.145325c4.03285-4.191462 6.341429-9.741875 6.341429-15.247262C876.250446 663.395338 874.711394 659.29495 871.833857 656.372388L871.833857 656.372388M426.923858 334.164988l296.242028 306.303174 66.154699-69.485561-295.700699-305.712727L426.923858 334.164988 426.923858 334.164988 426.923858 334.164988 426.923858 334.164988zM372.958782 209.968361l21.409612 81.244372 57.113789-59.041698L372.958782 209.968361 372.958782 209.968361 372.958782 209.968361 372.958782 209.968361zM897.842207 488.178711c-15.541975 0-28.274974-13.07376-28.342512-29.362748l0-395.678738c0-20.75265-16.291035-37.608549-36.385698-37.608549L185.710121 25.528676c-20.073174 0-36.430724 16.856923-36.430724 37.608549L149.279397 708.978513c0 20.775162 16.35755 37.631062 36.430724 37.631062l416.95225 0c15.633049 0 28.321022 13.139252 28.321022 29.293163 0 16.129352-12.68695 29.271674-28.321022 29.271674L181.382559 805.174412c-48.913013 0-88.741114-41.143049-88.741114-91.755774l0-654.766564c0-50.612725 39.828101-91.733261 88.741114-91.733261l656.013975 0c48.959062 0 88.742137 41.120536 88.742137 91.733261l0 400.36855C926.092621 475.104951 913.383158 488.178711 897.842207 488.178711L897.842207 488.178711"  horiz-adv-x="1024" />

    
    <glyph glyph-name="tags" unicode="&#59412;" d="M256 640q0 30.285714-21.428571 51.714286T182.857143 713.142857t-51.714286-21.428571T109.714286 640t21.428571-51.714286T182.857143 566.857143t51.714286 21.428571T256 640z m609.714286-329.142857q0-30.285714-21.142857-51.428572l-280.571429-281.142857q-22.285714-21.142857-52-21.142857-30.285714 0-51.428571 21.142857L52 387.428571q-21.714286 21.142857-36.857143 57.714286T0 512V749.714286q0 29.714286 21.714286 51.428571t51.428571 21.714286h237.714286q30.285714 0 66.857143-15.142857T436 770.857143l408.571429-408q21.142857-22.285714 21.142857-52z m219.428571 0q0-30.285714-21.142857-51.428572l-280.571429-281.142857q-22.285714-21.142857-52-21.142857-20.571429 0-33.714285 8t-30.285715 25.714286l268.571429 268.571428q21.142857 21.142857 21.142857 51.428572 0 29.714286-21.142857 52L527.428571 770.857143q-21.714286 21.714286-58.285714 36.857143T402.285714 822.857143h128q30.285714 0 66.857143-15.142857t58.285714-36.857143l408.571429-408q21.142857-22.285714 21.142857-52z"  horiz-adv-x="1085" />

    
    <glyph glyph-name="Categories" unicode="&#58962;" d="M232.371009 352.544724c64.405091 0 128.810182-0.383871 193.193947 0.319893 13.755392 0.127957 27.08426-12.838366 27.041607-27.660067-0.533155-129.641903-0.341219-259.283807-0.234588-388.92571 0.021326-9.020978-2.025988-16.805037-9.362197-22.179237a28.257201 28.257201 0 0 0-10.620442-5.075633c-5.011654-1.023657-10.300549-0.981005-15.440161-0.981004l-376.641825-0.085305c-8.956999 0-17.487475 1.194267-22.60576 9.810047a39.879974 39.879974 0 0 0-5.011654 12.710408c-0.874374 4.542478-0.234588 9.362197-0.234589 14.096611-0.021326 126.890825 0.191936 253.78165-0.319892 380.672475-0.063979 15.184247 13.478151 27.745372 27.020281 27.596089 64.405091-0.682438 128.810182-0.298567 193.215273-0.298567zM230.600935 453.012401c-64.213155 0-128.447637 0.341219-192.639465-0.277241-13.926001-0.127957-25.762036 10.513811-25.698058 26.145908 0.383871 130.239037 0.213262 260.456747 0.234588 390.71711C12.498 883.289591 17.680264 891.734762 27.895508 894.677776c2.345881 0.682438 4.905023 0.810395 7.378862 0.810395C166.771651 895.509498 298.290259 895.381541 429.787541 895.744086c12.774387 0.021326 22.371172-12.155928 22.456477-22.541782 0.042652-5.096959 0.042652-10.172592 0.042653-15.290878 0.021326-124.544944 0.021326-249.111214-0.021327-373.656158-0.021326-7.592123 0.127957-14.992311-4.969002-21.795365a22.413825 22.413825 0 0 0-14.309872-8.743738 42.69503 42.69503 0 0 0-8.573128-0.682438l-193.812407-0.021326zM757.208522 895.530824c62.485734 0 124.992794 0.021326 187.478528-0.063979 5.672766 0 11.580121 0.149283 16.95432-1.34355 7.506819-2.06864 12.518473-7.314883 13.09428-15.951989 0.575807-8.573128 1.834052-17.103604 1.834052-25.676732 0.149283-122.796197 0.383871-245.592393-0.127957-368.367263-0.063979-16.805037-3.070971-24.589096-16.50647-29.856665a19.36418 19.36418 0 0 0-6.675097-1.322224c-130.729539-0.042652-261.480404-0.021326-392.209943 0-15.461487 0-23.757375 8.317214-23.757375 23.757375-0.021326 131.817175-0.106631 263.634349 0.085305 395.451524 0.021326 16.570449 7.954669 23.50146 24.290529 23.629417 3.070971 0.021326 6.120616-0.255914 9.191588-0.255914h186.34824zM513.812726 137.79c1.386202 23.67207 4.734414 46.619049 12.113275 68.819612 4.4785 13.478151 8.893021 27.169565 15.226899 39.752017a203.793063 203.793063 0 0 0 22.477804 34.548426c9.703416 12.283885 20.153249 24.205225 31.712043 34.633731 10.065961 9.084957 21.752713 16.527797 33.396812 23.522787a296.583311 296.583311 0 0 0 35.380148 17.786041c8.956999 3.817388 18.46848 6.845707 28.022612 8.551802 19.172244 3.433516 38.344488 8.274561 58.007234 5.992659 16.698406-1.940683 33.738031-3.113624 49.86063-7.506818 16.996973-4.627783 33.759357-11.388185 49.41278-19.598768 16.186577-8.551802 31.050931-19.684073 44.891628-32.223872a237.317832 237.317832 0 0 0 35.550757-41.116892c6.675097-9.660764 12.070623-20.345184 17.444823-30.858996 4.243912-8.274561 8.658433-16.698406 11.089618-25.612753 4.115954-15.013637 7.677428-30.325841 9.660764-45.787328 1.834052-14.26722 2.196597-28.918312 1.62079-43.356142-0.575807-14.757723-1.663443-29.622077-6.803054-43.825319-3.625452-10.065961-5.971333-20.579772-9.426175-30.688386-2.132619-6.205921-4.75574-12.36919-8.039974-18.020629a821.015626 821.015626 0 0 0-21.091601-34.036598c-2.388533-3.710757-2.047314-6.333878 0.8957-9.276892 17.444823-17.359518 34.868319-34.740362 52.227837-52.185185 10.599116-10.641768 21.624756-20.899665 31.328172-32.330503 6.71775-7.912016 3.902693-21.88067-4.094628-28.662398-6.973664-5.907354-21.816691-5.544809-28.406484 0.917026-23.096263 22.648413-46.107221 45.403457-69.22481 68.05187a153.697845 153.697845 0 0 1-12.987649 11.473489c-4.009324 3.177602-8.103952 1.642117-11.558794-1.322223-24.375834-20.686403-52.291816-33.780683-82.702962-42.41779-24.802358-7.058969-49.967261-7.293557-75.174816-6.504488a177.775112 177.775112 0 0 0-53.379451 10.535137c-17.359518 6.184595-34.548426 13.54213-49.58339 24.802358-13.222237 9.938004-26.63641 19.705399-38.856316 30.83767-8.189257 7.44284-14.843028 16.826363-21.43282 25.932646a339.299668 339.299668 0 0 0-19.278875 29.750033c-3.625452 6.291226-6.184595 13.328868-8.743738 20.217228a413.450827 413.450827 0 0 0-8.701085 26.01795 173.275286 173.275286 0 0 0-5.160938 21.560777c-2.175271 13.819371-3.796062 27.745372-5.672766 41.628721z m411.25423 0.426524c0.981005 105.180764-83.001528 186.689459-178.862748 188.31025-102.195098 1.727421-192.084985-85.326082-186.924047-197.736425 4.222585-92.043832 80.399733-183.362574 193.279252-178.308267 89.633973 4.009324 172.038367 79.269445 172.507543 187.734442z"  horiz-adv-x="1024" />

    
    <glyph glyph-name="more" unicode="&#58638;" d="M511.753 271.13500001l292.159 292.15499999c12.27 12.28 32.186 12.28 44.457 0 12.28-12.27 12.28-32.186 0-44.457l-314.388-314.388c-12.27-12.28-32.186-12.28-44.457 0l-314.387 314.388c-6.14 6.136-9.211 14.183-9.211 22.228s3.071 16.092 9.211 22.228c12.27 12.28 32.186 12.28 44.457 0l292.16-292.155z"  horiz-adv-x="1024" />

    
    <glyph glyph-name="article" unicode="&#58650;" d="M792.576-29.184H241.152c-40.448 0-73.728 32.768-73.728 73.728V723.456c0 40.448 32.768 73.728 73.728 73.728h432.64l192.512-192.512v-560.128c0-40.448-33.28-73.728-73.728-73.728zM241.152 751.104a27.533 27.533 0 0 1-27.648-27.648v-678.912a27.533 27.533 0 0 1 27.648-27.648h551.424a27.533 27.533 0 0 1 27.648 27.648V585.728L654.336 751.616H241.152zM843.264 571.904H697.856c-31.232 0-56.832 25.6-56.832 56.832V774.144h46.08v-145.408c0-5.632 5.12-10.752 10.752-10.752h145.408v-46.08z m-299.52-55.808H345.6c-12.8 0-23.04 10.24-23.04 23.04s10.24 23.04 23.04 23.04h198.144c12.8 0 23.04-10.24 23.04-23.04s-10.24-23.04-23.04-23.04z m143.872-161.28H345.6c-12.8 0-23.04 10.24-23.04 23.04s10.24 23.04 23.04 23.04h342.016c12.8 0 23.04-10.24 23.04-23.04s-10.24-23.04-23.04-23.04z m0-156.16H345.6c-12.8 0-23.04 10.24-23.04 23.04s10.24 23.04 23.04 23.04h342.016c12.8 0 23.04-10.24 23.04-23.04s-10.24-23.04-23.04-23.04z"  horiz-adv-x="1024" />

    
    <glyph glyph-name="mafengwo" unicode="&#58896;" d="M403.257625 688.503998c-47.843681-4.77619-84.316106-37.169224-95.442011-84.751197-2.25724-9.653792-3.654112-326.802604-1.495013-339.367908 4.979014-28.987546 43.842805-34.712431 56.781045-8.364875l2.548392 5.191653 0.451448 165.831924 0.454719 165.835196 1.933376 5.103326c11.351629 29.975498 48.802191 40.414416 72.827079 20.302078 3.932178-3.290991 11.148805-10.007099 45.298561-42.158053 8.727996-8.217663 18.519185-17.42655 21.761106-20.468917 11.525011-10.818397 51.239356-48.134833 62.453588-58.688249 6.271203-5.898267 14.050503-12.892441 17.289152-15.545516 31.70932-25.951721 77.492043-30.996163 114.422458-12.611104 13.219577 6.581982 18.309818 10.651557 46.868815 37.480004l28.4674 26.733577c6.925475 6.503469 14.096302 13.252291 15.928265 14.995927 1.835235 1.743636 8.587327 8.063909 15.00247 14.043961a4736.769812 4736.769812 0 0 1 19.412267 18.198591c40.005496 37.823497 42.756712 40.227949 50.395345 44.009644 23.746823 11.767092 53.52931-0.595388 63.238715-26.249415l1.94646-5.145854 0.45472-165.835196 0.451448-165.831924 2.659618-5.250538c13.334075-26.311571 51.690804-20.612857 56.67309 8.420488 1.84832 10.772598 0.758956 329.491664-1.154791 337.987394-16.199789 71.91764-92.523955 107.99423-155.592559 73.543508-11.659137-6.366072-15.574958-9.666877-51.203372-43.162361a27545.954594 27545.954594 0 0 0-36.714505-34.434366c-11.181518-10.468361-24.021617-22.575675-28.536098-26.906959-4.511209-4.331284-9.208886-8.744353-10.44219-9.804274-1.230032-1.059922-5.090241-4.68132-8.580784-8.050824-32.294894-31.182631-39.105871-35.435402-56.705804-35.435402-18.178963 0-19.968399 1.216947-67.906949 46.214542a15715.080727 15715.080727 0 0 1-41.942143 39.289068c-2.093672 1.923561-6.460942 6.006222-9.699591 9.078032-3.238649 3.068538-12.823742 12.061515-21.296572 19.988027-8.47283 7.923241-18.666396 17.531233-22.654188 21.348914-27.38785 26.216702-56.656733 37.633758-88.352967 34.467078m-72.866336-505.291431c-22.549504-8.263463-26.056405-41.412182-5.649643-53.372285 12.977496-7.605919 81.123256-25.074996 132.434581-33.950203 102.661908-17.756957 211.176285-21.401256 324.869229-10.906724 78.630477 7.259154 176.02222 28.735651 203.668507 44.915812 17.318595 10.137953 17.943425 38.026322 1.108992 49.757428-9.424796 6.568897-18.744909 6.585253-37.349149 0.065428-153.60357-53.823733-408.730615-53.843361-586.624055-0.042528-17.792942 5.381392-25.209122 6.189418-32.458462 3.533072"  horiz-adv-x="1308" />

    
    <glyph glyph-name="guanyu" unicode="&#58906;" d="M471.947636 136.680727l46.848 83.223273a46.173091 46.173091 0 0 0 63.976728 17.594182l324.491636-192.186182a48.709818 48.709818 0 0 0 17.152-65.629091l-46.848-83.223273a46.173091 46.173091 0 0 0-63.976727-17.594181l-324.491637 192.186181a48.709818 48.709818 0 0 0-17.152 65.629091zM791.272727 849.454545h93.090909a46.545455 46.545455 0 0 0 46.545455-46.545454v-884.363636a46.545455 46.545455 0 0 0-46.545455-46.545455h-93.090909a46.545455 46.545455 0 0 0-46.545454 46.545455V802.909091a46.545455 46.545455 0 0 0 46.545454 46.545454zM861.090909-81.454545a58.181818 58.181818 0 0 0-23.272727 9.30909l-349.090909 196.654546L139.636364-72.145455a28.113455 28.113455 0 0 0-23.272728-9.30909 24.832 24.832 0 0 0-23.272727 23.272727c0.349091-4.375273 0 37.096727 0 23.272727V849.454545a46.545455 46.545455 0 0 0 46.545455 46.545455h698.181818a46.545455 46.545455 0 0 0 46.545454-46.545455v-907.636363a21.736727 21.736727 0 0 0-23.272727-23.272727zM837.818182 849.454545H139.636364v-867.793454l336.896 189.765818a23.016727 23.016727 0 0 0 4.538181 1.489455 23.691636 23.691636 0 0 0 2.746182 0.907636 37.236364 37.236364 0 0 0 9.821091 0 23.691636 23.691636 0 0 0 2.746182-0.907636 23.016727 23.016727 0 0 0 4.538182-1.489455L837.818182-18.338909V849.454545zM256 314.181818a23.272727 23.272727 0 0 0 23.272727 23.272727h418.909091a23.272727 23.272727 0 0 0 0-46.545454H279.272727a23.272727 23.272727 0 0 0-23.272727 23.272727z m442.181818 162.909091H279.272727a23.272727 23.272727 0 0 0 0 46.545455h418.909091a23.272727 23.272727 0 0 0 0-46.545455z m0 186.181818H279.272727a23.272727 23.272727 0 0 0 0 46.545455h418.909091a23.272727 23.272727 0 0 0 0-46.545455z"  horiz-adv-x="1024" />

    
    <glyph glyph-name="location" unicode="&#58625;" d="M512.103132 575.879021a106.221743 106.221743 0 1 0-75.507022-31.354611A106.221743 106.221743 0 0 0 512.103132 575.879021m0 63.989002a170.850635 170.850635 0 1 1 120.939214-49.911422A169.570855 169.570855 0 0 1 512.103132 639.868023zM805.172761 771.685367a407.609942 407.609942 0 0 1-586.139257 0 431.285873 431.285873 0 0 1 0-599.576948L512.103132-128l293.069629 300.108419a431.285873 431.285873 0 0 1 0 599.576948z m-44.152411-557.344207l-248.917218-255.956007-248.917217 255.956007a365.377201 365.377201 0 0 0 0 508.712565 346.82039 346.82039 0 0 0 497.834435 0 365.377201 365.377201 0 0 0 0-508.712565z"  horiz-adv-x="1024" />

    
    <glyph glyph-name="arrow-backimg" unicode="&#58626;" d="M329.525 704.453l56.285 58.261 393.996-392.021-393.996-392.021-56.285 58.261 331.78600001 333.761z"  horiz-adv-x="1024" />

    
    <glyph glyph-name="biaoqian" unicode="&#58964;" d="M960.876712 800.613699c-1.40274 18.235616-15.430137 32.263014-33.665753 33.665753L521.819178 853.917808c-9.819178 0-19.638356-2.805479-26.652055-9.819178L29.457534 376.986301c-7.013699-7.013699-9.819178-15.430137-9.819178-25.249315s4.208219-18.235616 9.819178-25.249315l429.238356-429.238356c7.013699-7.013699 15.430137-9.819178 25.249315-9.819178s18.235616 2.805479 25.249316 9.819178L974.90411 362.958904c7.013699 7.013699 11.221918 16.832877 9.819178 26.652055L960.876712 800.613699z m-478.334246-827.616439l-378.739726 378.739726L533.041096 783.780822l359.10137-18.235617L911.780822 403.638356 482.542466-27.00274zM575.123288 612.646575c-47.693151-47.693151-47.693151-123.441096 0-171.134246 22.443836-22.443836 53.30411-35.068493 85.567123-35.068493s63.123288 12.624658 85.567123 35.068493c22.443836 22.443836 35.068493 53.30411 35.068493 85.567123s-12.624658 63.123288-35.068493 85.567123c-46.290411 46.290411-123.441096 46.290411-171.134246 0z m122.038356-122.038356c-19.638356-19.638356-53.30411-19.638356-71.539726 0-19.638356 19.638356-19.638356 51.90137 0 71.539726 9.819178 9.819178 22.443836 15.430137 36.471233 15.430137 12.624658 0 26.652055-5.610959 36.471233-15.430137 9.819178-9.819178 15.430137-22.443836 15.430137-36.471233s-7.013699-25.249315-16.832877-35.068493z"  horiz-adv-x="1024" />

    
    <glyph glyph-name="shuju" unicode="&#58897;" d="M848 32H176a96 96 0 0 0-96 96V640a96 96 0 0 0 96 96h672a96 96 0 0 0 96-96v-512a96 96 0 0 0-96-96zM704 128h144V208H704v-80z m0 176h144V384H704v-80z m144 176V560H704v-80h144zM416 128h192V208H416v-80z m0 176h192V384H416v-80z m192 176V560H416v-80h192zM176 128h144V208H176v-80z m0 176h144V384H176v-80z m144 176V560H176v-80h144z"  horiz-adv-x="1024" />

    
    <glyph glyph-name="Oval2-copy-copy" unicode="&#58627;" d="M512 384m-512 0a512 512 0 1 1 1024 0 512 512 0 1 1-1024 0Z"  horiz-adv-x="1024" />

    
    <glyph glyph-name="kanjian" unicode="&#58956;" d="M512 225.7c-87.3 0-158.3 71-158.3 158.3s71 158.3 158.3 158.3 158.3-71 158.3-158.3-71-158.3-158.3-158.3z m0 236.6c-43.2 0-78.3-35.1-78.3-78.3s35.1-78.3 78.3-78.3 78.3 35.1 78.3 78.3-35.1 78.3-78.3 78.3zM512 68C240.8 68 12 262.1 12 384s228.8 316 500 316 500-194.1 500-316-228.8-316-500-316z m0 552C278.3 620 92 450.5 92 384s186.2-236 420-236 420 169.5 420 236-186.3 236-420 236z"  horiz-adv-x="1024" />

    
    <glyph glyph-name="jiahao" unicode="&#59513;" d="M972.8 435.2h-409.6V844.8H460.8v-409.6H51.2v-102.4h409.6v-409.6h102.4v409.6h409.6V435.2z"  horiz-adv-x="1024" />

    
    <glyph glyph-name="kongxinyuan" unicode="&#58628;" d="M512.3 383.79999999999995m-414.3 0a414.3 414.3 0 1 1 828.6 0 414.3 414.3 0 1 1-828.6 0ZM512.3-120.5c-68 0-134.1 13.3-196.3 39.7-60.1 25.4-114 61.8-160.3 108-46.3 46.3-82.6 100.2-108 160.3-26.4 62.2-39.7 128.3-39.7 196.3s13.3 134.1 39.7 196.3c25.4 60.1 61.8 114 108 160.3C202 786.7 255.9 823 316 848.4c62.2 26.3 128.3 39.7 196.3 39.7s134.1-13.3 196.3-39.7c60.1-25.4 114-61.8 160.3-108s82.6-100.2 108-160.3c26.3-62.2 39.7-128.3 39.7-196.3s-13.3-134.1-39.7-196.3c-25.4-60.1-61.8-114-108-160.3-46.3-46.3-100.2-82.6-160.3-108-62.2-26.3-128.3-39.7-196.3-39.7z m0 828.6C333.5 708.1 188 562.6 188 383.79999999999995s145.5-324.3 324.3-324.3 324.3 145.5 324.3 324.3S691.1 708.1 512.3 708.1z"  horiz-adv-x="1024" />

    


  </font>
</defs>
</svg>
